<svg width="45" height="47" viewBox="0 0 45 47" fill="none" xmlns="http://www.w3.org/2000/svg">
<path d="M21.7997 15.2734C21.153 15.7144 20.5062 16.1554 19.6537 17.3314C18.8011 18.5073 17.7428 20.4181 16.78 22.182C15.8172 23.9459 14.9499 25.5628 14.384 26.5623C13.8181 27.5619 13.5535 27.9441 13.1052 28.3263C12.6569 28.7085 12.0248 29.0906 11.209 29.3772C10.3932 29.6639 9.3937 29.855 8.1884 30.0167C6.983 30.1784 5.5719 30.3106 4.5062 30.3547C3.4405 30.3988 2.7203 30.3547 2 30.3106M22.6369 37.1456C20.6964 36.5723 18.756 35.9991 17.0141 35.5801C15.2721 35.1612 13.7287 34.8966 12.4719 34.7422C11.2151 34.5879 10.245 34.5439 9.4733 34.5733C8.7015 34.6027 8.1283 34.7055 7.68 34.8745C7.2316 35.0436 6.9083 35.2788 6.754 35.5434C6.5996 35.808 6.6143 36.1019 7.6433 36.6605C8.6722 37.2191 10.7153 38.0422 13.3626 39.0136C16.0099 39.985 19.2613 41.1045 22.5127 42.2241M22.6369 37.1456C24.5774 36.5723 26.518 35.9991 28.2599 35.5801C30.0019 35.1612 31.5453 34.8966 32.8021 34.7422C34.0589 34.5879 35.029 34.5439 35.8007 34.5733C36.5725 34.6027 37.1457 34.7055 37.594 34.8745C38.0424 35.0436 38.3657 35.2788 38.52 35.5434C38.6744 35.808 38.6597 36.1019 37.6307 36.6605C36.6018 37.2191 34.5587 38.0422 31.8026 39.0491C29.0465 40.056 25.5775 41.2467 22.5127 42.2241M22.6369 37.1456C24.6103 37.1456 26.2251 35.531 26.2251 33.5576V18.2291H19.0489V33.5576C19.0489 35.531 20.6635 37.1456 22.6369 37.1456ZM22.5127 42.2241C19.448 43.2016 16.7874 43.966 14.1269 44.7303M25.2643 16.5964C26.3227 18.5073 27.381 20.4181 28.3438 22.182C29.3066 23.9459 30.1739 25.5628 30.7398 26.5623C31.3057 27.5619 31.5703 27.9441 32.0186 28.3263C32.4669 28.7085 33.099 29.0906 33.9148 29.3772C34.7306 29.6639 35.7301 29.855 36.9354 30.0167C38.1408 30.1784 39.5519 30.3106 40.6176 30.3547C41.6833 30.3988 42.4035 30.3547 43.1238 30.3106M27.7308 43.8263C28.8847 44.2085 30.0385 44.5906 31.1924 44.9728L27.7308 43.8263ZM22.6369 2C25.389 2 27.6199 4.231 27.6199 6.983C27.6199 9.735 25.389 11.966 22.6369 11.966C19.8848 11.966 17.6539 9.735 17.6539 6.983C17.6539 4.231 19.8848 2 22.6369 2Z" stroke="#8081BD" stroke-width="3" stroke-miterlimit="22.9256" stroke-linecap="round" stroke-linejoin="round"/>
</svg>
