<svg width="171" height="218" viewBox="0 0 171 218" fill="none" xmlns="http://www.w3.org/2000/svg">
<path d="M98.6873 160.57C107.607 160.57 109.007 146.62 99.9673 146.62C90.9273 146.62 89.6473 160.57 98.6873 160.57Z" fill="white"/>
<path d="M151.047 160.58C160.047 160.58 159.047 146.58 150.047 146.58C141.047 146.58 142.047 160.58 151.047 160.58Z" fill="white"/>
<path d="M152.367 89.4097C161.367 89.4097 160.567 75.4097 151.567 75.4097C142.567 75.4097 143.367 89.4097 152.367 89.4097Z" fill="white"/>
<path d="M130.297 129.27C139.297 129.27 139.957 115.27 130.937 115.27C121.917 115.27 121.267 129.27 130.297 129.27Z" fill="white"/>
<path d="M6.47722 166.28C15.4772 166.28 16.0872 152.28 7.06725 152.28C-1.95275 152.28 -2.54278 166.28 6.47722 166.28Z" fill="white"/>
<path d="M70.6273 123.58C79.6273 123.58 80.0673 109.58 71.0273 109.58C61.9873 109.58 61.5873 123.58 70.6273 123.58Z" fill="white"/>
<path d="M42.4272 162.02C51.4272 162.02 51.3072 148.02 42.2872 148.02C33.2672 148.02 33.4072 162.02 42.4272 162.02Z" fill="white"/>
<path d="M125.867 226.06C134.867 226.06 135.867 212.06 126.867 212.06C117.867 212.06 116.867 226.06 125.867 226.06Z" fill="white"/>
<path d="M162.517 200.4C166.327 200.4 169.777 198.35 170.307 194.29C170.747 190.88 167.967 186.5 164.187 186.5C160.407 186.5 156.937 188.5 156.407 192.62C155.957 196.02 158.747 200.4 162.517 200.4Z" fill="white"/>
<path d="M82.9273 197.57C91.8573 197.57 93.3673 183.64 84.3573 183.64C75.3473 183.64 73.9073 197.57 82.9273 197.57Z" fill="white"/>
<path d="M33.0173 197.58C42.0173 197.58 40.7373 183.63 31.7673 183.63C22.7973 183.63 24.0473 197.58 33.0173 197.58Z" fill="white"/>
<path d="M159.777 13.9297C168.717 13.9297 170.237 -0.000244141 161.237 -0.000244141C152.237 -0.000244141 150.777 13.9297 159.777 13.9297Z" fill="white"/>
<path d="M132.247 45.2898C141.247 45.2898 140.827 31.2898 131.827 31.2898C122.827 31.2898 123.247 45.2898 132.247 45.2898Z" fill="white"/>
<path d="M79.6872 75.1797C88.6872 75.1797 88.0772 61.1797 79.0872 61.1797C70.0972 61.1797 70.6972 75.1797 79.6872 75.1797Z" fill="white"/>
</svg>
