<svg width="76" height="19" viewBox="0 0 76 19" fill="none" xmlns="http://www.w3.org/2000/svg">
<path fill-rule="evenodd" clip-rule="evenodd" d="M66.0692 13.59C66.0031 13.635 65.9671 13.698 65.8981 13.746C65.8771 13.761 65.8711 13.761 65.8501 13.779C65.8381 13.788 65.8201 13.809 65.8081 13.821L65.178 14.4031C65.139 14.4361 65.127 14.4391 65.088 14.4782L63.5637 15.8734C63.5277 15.9094 63.5127 15.9124 63.4737 15.9454C63.3806 16.0294 63.3026 16.1285 63.2006 16.1975C63.2216 15.9364 63.3296 15.3573 63.3746 15.0933C63.4617 14.5712 63.5427 13.9441 63.6357 13.434C63.6567 13.3139 63.7737 12.4198 63.8187 12.3417L65.493 10.7814C65.5711 10.7244 65.6521 10.6194 65.7361 10.5504L67.5184 8.89109C67.5364 8.87609 67.5484 8.86408 67.5604 8.85208L68.1486 8.30598C68.2596 8.19195 68.3646 8.10494 68.4756 7.99392L68.6406 7.84689C68.6977 7.78988 68.7457 7.73287 68.8087 7.68486L69.0457 7.46582C69.1387 7.3878 69.2108 7.29778 69.3098 7.22277L70.2129 6.37061C70.252 6.3376 70.264 6.3346 70.303 6.29559L71.2211 5.44343C71.2541 5.41643 71.2751 5.39242 71.3052 5.36242C71.3352 5.33241 71.3532 5.30841 71.3862 5.2784C71.5092 5.16738 71.6982 5.01435 71.7912 4.88232C71.9593 4.65128 71.8152 4.2552 71.2091 4.66028C70.9031 4.86732 70.51 5.09836 70.1829 5.2904L70.0719 5.35941C70.0689 5.35941 70.0629 5.36242 70.0599 5.36542C70.0389 5.37742 70.0389 5.38042 70.0209 5.39242C69.9219 5.45543 69.8109 5.52445 69.7088 5.58746C69.6008 5.65047 69.5018 5.71048 69.3938 5.77949C69.2858 5.85151 69.1747 5.91152 69.0697 5.98053L68.3766 6.41862C68.3436 6.43962 68.3256 6.44562 68.2926 6.46663C68.2566 6.48463 68.2416 6.49363 68.2086 6.51463L67.1794 7.15676C67.0653 7.21677 66.9753 7.28278 66.8643 7.35179L65.9911 7.8889C65.9611 7.9099 65.9491 7.9189 65.9131 7.93991L64.5029 8.81007C64.4458 8.84908 64.4008 8.88209 64.3468 8.91509L63.9087 9.18514C63.8817 9.20315 63.8907 9.19715 63.8697 9.20915L63.1166 9.66823C62.6785 9.93529 62.2524 10.2173 61.8113 10.4784C61.7453 10.5174 61.7153 10.5414 61.6463 10.5774C61.5923 10.6074 61.5263 10.6404 61.4933 10.6854C61.3913 10.6194 60.7791 10.4394 60.6141 10.3854L57.9466 9.4792C57.7426 9.41019 57.5595 9.35017 57.3555 9.28416L57.0854 9.19415C57.0134 9.17014 56.8484 9.10413 56.7704 9.09513C56.8274 9.02011 57.1215 8.9391 57.2325 8.88509L57.8596 8.62404C58.0396 8.54602 58.2197 8.46501 58.3967 8.39299C58.5857 8.31498 58.7688 8.24296 58.9518 8.16195L59.771 7.81388C59.951 7.74187 60.128 7.64585 60.3171 7.58284C60.7041 7.45381 62.0604 6.8447 62.4925 6.66766C62.5795 6.63166 62.6725 6.59265 62.7685 6.54764C63.2216 6.3466 63.6897 6.17257 64.1458 5.97753L64.5599 5.8005C65.058 5.57546 65.5681 5.38042 66.0692 5.16138L68.8177 4.00616C69.2588 3.82012 69.6698 3.61908 70.1199 3.45405L70.33 3.37004C70.378 3.34903 70.414 3.33403 70.468 3.31302C70.567 3.27402 70.654 3.23201 70.744 3.196L73.7716 1.92676C73.9307 1.85775 74.1737 1.73772 74.3327 1.70172C74.3327 1.88175 74.1017 2.95296 74.0627 3.166C74.0387 3.29202 74.0147 3.40604 73.9907 3.52307C73.9667 3.64309 73.9487 3.76911 73.9186 3.88913L73.8466 4.28221C73.8436 4.31822 73.8376 4.35122 73.8316 4.38123L72.5234 11.0605C72.5174 11.0875 72.5114 11.1055 72.5054 11.1235C72.5024 11.1355 72.4994 11.1775 72.4934 11.2105L72.4664 11.3606C72.4484 11.4896 72.4184 11.6036 72.3944 11.7326C72.2983 12.2127 72.2023 12.7108 72.1033 13.1969C72.0703 13.3619 71.3592 17.0676 71.3142 17.1787C71.2091 17.4247 70.9061 17.2927 70.771 17.1817C70.342 16.8306 69.8769 16.5155 69.4478 16.1615C69.1597 15.9214 68.8477 15.6964 68.5476 15.4713C68.3436 15.3183 67.8575 14.9252 67.7045 14.8232L67.4614 14.6402C67.4584 14.6372 67.4554 14.6342 67.4524 14.6342L67.3834 14.5862C67.3594 14.5652 67.3474 14.5562 67.3204 14.5352C67.2304 14.4692 67.1554 14.4061 67.0683 14.3431L66.4622 13.869C66.4382 13.851 66.4172 13.839 66.3932 13.821L66.1472 13.626C66.1142 13.602 66.1142 13.599 66.0692 13.59ZM60.167 11.9487C60.17 11.9997 60.179 12.0117 60.191 12.0537L60.3981 12.7498C60.4431 12.8848 60.4821 13.0379 60.5301 13.1759L60.7942 14.0431C61.0372 14.7632 61.2292 15.4893 61.4663 16.2065C61.5173 16.3535 61.5473 16.4885 61.5953 16.6356C61.7033 16.9506 61.7633 17.1487 61.9224 17.4397L62.0304 17.6107C62.1204 17.7218 62.2014 17.8178 62.3124 17.9018C62.3785 17.9498 62.4055 17.9678 62.4895 18.0038C62.8675 18.1779 63.2576 18.1328 63.6297 17.9738C63.8487 17.8778 64.1458 17.5537 64.3678 17.3467L64.5479 17.1847C64.5839 17.1517 64.6019 17.1457 64.6379 17.1097C64.6559 17.0947 64.6619 17.0886 64.6829 17.0706L64.6979 17.0556C64.7009 17.0556 64.7039 17.0496 64.7069 17.0496L65.013 16.7796C65.193 16.6296 65.355 16.4525 65.5321 16.2995C65.6551 16.1915 65.7631 16.0715 65.8921 15.9694C65.9281 15.9394 65.9491 15.9154 65.9821 15.8794C66.0211 15.8404 66.0301 15.8374 66.0722 15.8044C66.1112 15.7744 66.1262 15.7504 66.1682 15.7204C66.4532 15.9124 66.8553 16.2275 67.1464 16.4645C67.2004 16.5095 67.2454 16.5335 67.2964 16.5786L68.5656 17.5537C68.6136 17.5957 68.6556 17.6197 68.7037 17.6618L68.8417 17.7698C68.8957 17.8088 68.9377 17.8418 68.9887 17.8838C69.0367 17.9198 69.0847 17.9498 69.1297 17.9888C69.3638 18.1899 69.6278 18.3519 69.8649 18.5499L69.9759 18.6369C70.1889 18.814 70.621 18.934 70.9391 18.934C71.4672 18.934 71.8062 18.871 72.2233 18.5799L72.5654 18.2499C72.7274 18.0818 72.8775 17.7908 72.9255 17.5597L73.3305 15.5043C73.4086 15.1113 73.4776 14.7332 73.5556 14.3371C73.5766 14.2351 73.5916 14.1421 73.6126 14.0491C73.6246 13.9861 73.6156 13.9981 73.6336 13.923L73.7626 13.2329C74.1557 11.2855 74.5278 9.29616 74.9208 7.35479C74.9388 7.25878 74.9598 7.14776 74.9688 7.08474C74.9778 7.02473 74.9899 6.98872 74.9959 6.95272L75.0889 6.46663C75.0919 6.46362 75.0919 6.46062 75.0919 6.45762L75.926 2.19381C76.0461 1.5877 76.0491 1.11961 75.713 0.615511L75.575 0.441478C75.4249 0.276446 75.2149 0.165425 74.9989 0.0844096C74.3327 -0.164638 73.6486 0.19243 73.0455 0.444478L71.6502 1.03559C71.6022 1.05659 71.5812 1.0626 71.5302 1.0806C71.4942 1.0926 71.4642 1.11061 71.4282 1.12561L70.8701 1.35365C70.723 1.41366 70.585 1.47668 70.435 1.54269L68.0105 2.55988C67.9355 2.59289 67.8575 2.61989 67.7915 2.6529L66.4772 3.208C66.3272 3.27402 66.1832 3.33103 66.0301 3.40004L65.151 3.76611C65.103 3.78411 65.1 3.79012 65.046 3.81112C64.992 3.82912 64.9799 3.83812 64.9319 3.85913L60.4551 5.74649C60.4101 5.76749 60.3891 5.77649 60.3411 5.7945L58.8228 6.43962C58.7898 6.45462 58.7538 6.46663 58.7148 6.48163C58.6848 6.49063 58.6787 6.49363 58.6547 6.50263L57.7216 6.89571C57.5715 6.95872 57.4335 7.01873 57.2805 7.08174L56.1913 7.54683C56.0022 7.62785 55.8432 7.71486 55.6692 7.81388L55.5702 7.87989C55.3211 8.05993 55.1351 8.27897 55.0121 8.56703C54.799 9.06812 54.955 9.56322 55.2581 9.97129C55.4501 10.2293 55.8612 10.5024 56.1733 10.6104C56.2663 10.6434 56.3293 10.6614 56.4163 10.6974L58.2767 11.3276C58.5887 11.4326 58.8978 11.5556 59.2159 11.6366C59.3659 11.6756 59.5309 11.7386 59.6839 11.7926C59.798 11.8316 60.056 11.9397 60.167 11.9487Z" fill="#EA5D4A"/>
<path fill-rule="evenodd" clip-rule="evenodd" d="M9.81963 2.02019C10.236 2.05532 10.5664 2.19479 10.85 2.38092C11.1834 2.59978 11.2732 2.79211 11.401 3.2273C11.816 4.64049 11.6456 6.31219 11.4951 7.75684C11.4592 8.10122 11.4016 8.37108 11.2823 8.65337C11.1621 8.93788 11.0958 9.04141 10.9204 9.1061C10.2901 9.33868 9.66767 8.59473 9.33919 8.18477C8.87809 7.60919 8.35495 6.66217 8.00975 5.96142C7.85851 5.65446 7.72995 5.45527 7.58543 5.16219L6.44968 2.74257C6.30477 2.4121 6.25818 2.18993 6.02443 1.94428C5.49965 1.39274 5.09134 1.55215 4.1589 1.55194C3.70152 1.5518 0.978577 1.51544 0.656117 1.57291C0.478526 1.60459 0.354347 1.65632 0.236776 1.73331C0.0958367 1.8256 0.0243766 1.94936 0 2.0907V2.34593C0.0599157 2.77442 0.376776 3.27558 0.495494 3.56675C1.25983 5.44195 2.59974 7.8732 3.68591 9.69909C4.50946 11.0836 5.78341 12.814 6.79808 14.0376C7.39887 14.7622 7.25595 14.5242 7.7262 14.9702C8.0569 15.2839 8.37414 15.5318 8.75631 15.7994C11.6227 17.8068 12.6939 17.8242 16.0002 17.8242C17.473 17.8242 17.2636 16.9003 17.3316 16.0126C17.3657 15.5679 17.4749 15.088 17.6354 14.7399C17.7205 14.5554 17.8243 14.3801 17.9487 14.238C18.5453 13.5565 19.145 14.0174 19.6913 14.5521L20.7701 15.7417C21.1913 16.2936 22.2041 17.2876 22.8741 17.5898C24.0277 18.1102 25.3242 17.8179 26.4548 17.8238C27.5945 17.8298 29.5744 18.0354 29.5744 16.9462C29.5744 16.2598 29.2278 15.9009 28.9639 15.4577C28.4644 14.6188 26.3968 12.5158 25.6047 11.8377C25.4148 11.6751 24.7801 10.9722 24.7801 10.5075C24.7801 9.62745 26.298 7.87538 26.9337 7.01208C27.661 6.02439 31.2728 1.55194 28.5924 1.55194L23.5337 1.58577C23.2663 1.55427 23.0717 1.59071 22.8871 1.74082C22.7076 1.88678 22.6196 2.04073 22.5276 2.25452C22.0663 3.32639 21.7925 4.14134 21.1655 5.20571C21.0494 5.40258 20.9961 5.53522 20.8775 5.73336L19.8705 7.34692C19.75 7.53132 19.64 7.671 19.5128 7.86245C19.2941 8.19161 18.4297 9.10272 18.1374 9.10272C17.3021 9.10272 17.2705 7.83158 17.271 6.93699L17.3789 2.49618C17.2606 1.34009 16.8891 1.07154 15.9438 0.906662C14.7678 0.701541 12.1619 0.753764 11.0476 0.981825C10.5675 1.08007 9.83232 1.44239 9.81963 2.02019Z" fill="#EA5D4A"/>
</svg>
